PathFileType	4	(X/Y/Z)	./resultDataOpenSim/trcMotMarkerGrf/sub09/qtm-12-02.trc
DataRate	CameraRate	NumFrames	NumMarkers	Units	OrigDataRate	OrigDataStartFrame	OrigNumFrames
250.000000	250.000000	10	24	m	250.000000	61	482
Frame#	Time	L.Toe.Tip			R.Toe.Tip			L.Ankle.Lat			R.Ankle.Lat			L.Ankle.Med			R.Ankle.Med			L.Heel			R.Heel			L.Knee.Lat			R.Knee.Lat			L.Knee.Med			R.Knee.Med			L.Thigh.Upper			R.Thigh.Upper			L.ASIS			R.ASIS			V.Sacral			L.Acromium			R.Acromium			C7			L.Elbow			R.Elbow			L.Wrist.Lat			R.Wrist.Lat
		X1	Y1	Z1	X2	Y2	Z2	X3	Y3	Z3	X4	Y4	Z4	X5	Y5	Z5	X6	Y6	Z6	X7	Y7	Z7	X8	Y8	Z8	X9	Y9	Z9	X10	Y10	Z10	X11	Y11	Z11	X12	Y12	Z12	X13	Y13	Z13	X14	Y14	Z14	X15	Y15	Z15	X16	Y16	Z16	X17	Y17	Z17	X18	Y18	Z18	X19	Y19	Z19	X20	Y20	Z20	X21	Y21	Z21	X22	Y22	Z22	X23	Y23	Z23	X24	Y24	Z24

61	0.24	-1.3799803	0.087642529	-0.06066715	-0.62447807	0.039085114	0.064046826	-1.3984391	0.24369773	-0.10228038	-0.77118194	0.05345655	0.097999074	-1.3699282	0.22882422	-0.0094587577	-0.76204567	0.095534057	0.0080964918	-1.4570385	0.29021032	-0.05137236	-0.84047598	0.031040328	0.050666775	-1.0269991	0.42384193	-0.14046455	-0.73411646	0.50639933	0.15284048	-1.0103247	0.40927945	-0.015198097	-0.75644817	0.49414311	0.027864257	-0.98442744	0.83042425	-0.15068511	-0.93432917	0.85891238	0.21857531	-0.88812929	0.91662836	-0.10397705	-0.86691976	0.94352664	0.13502192	-1.0462719	0.98568862	0.024843369	-0.86569453	1.3855436	-0.13192063	-0.9052247	1.388906	0.19631386	-0.95224761	1.438891	0.028910604	-1.0085064	1.0443913	-0.21733096	-1.0582734	1.059345	0.25954508	-0.82496457	0.84680262	-0.20888884	-0.95446504	0.81253775	0.30765844
62	0.244	-1.3665907	0.090435385	-0.061983024	-0.62443783	0.039062872	0.063993093	-1.3854559	0.24648629	-0.10224114	-0.7712357	0.053551057	0.098099705	-1.3572935	0.23105925	-0.0093192962	-0.76183872	0.095540307	0.0081022151	-1.4441487	0.29264271	-0.051089681	-0.84052942	0.031040811	0.050682435	-1.0133887	0.4240732	-0.1399661	-0.73092888	0.50622277	0.15326962	-0.99811933	0.4095569	-0.014342169	-0.75375116	0.49403517	0.027973279	-0.97773648	0.83120038	-0.15098781	-0.92890407	0.86060097	0.21882137	-0.88208548	0.91788401	-0.1037113	-0.8607076	0.94497793	0.13518426	-1.0399337	0.98723855	0.025535081	-0.85960699	1.3867712	-0.13207808	-0.89818002	1.3903221	0.19627338	-0.94577259	1.4404692	0.029115201	-1.0025271	1.0456559	-0.21662227	-1.0508837	1.0605636	0.26048442	-0.82069588	0.84676483	-0.20903349	-0.94604921	0.81400118	0.30763049
63	0.248	-1.3527066	0.092924108	-0.063189665	-0.62441072	0.039047211	0.063956478	-1.3721854	0.24891653	-0.10218393	-0.77131363	0.053638991	0.098202662	-1.3441151	0.23308314	-0.0092820977	-0.76162852	0.0955445	0.0081160916	-1.4311126	0.29461178	-0.050777944	-0.84059634	0.031043784	0.050686596	-0.99980003	0.42455257	-0.13940663	-0.72832057	0.50614735	0.15377653	-0.98598816	0.40994011	-0.013453518	-0.75105643	0.49391094	0.028146561	-0.97104583	0.83204405	-0.15136276	-0.92334365	0.86238531	0.21906059	-0.87616377	0.91921033	-0.10348447	-0.85453499	0.9465188	0.13529924	-1.0336474	0.98881171	0.026198406	-0.85355315	1.3880783	-0.13223787	-0.89111651	1.391797	0.19619771	-0.93939204	1.442139	0.029261269	-0.99660526	1.0469959	-0.21591462	-1.0436981	1.0619004	0.26126263	-0.81645571	0.84679996	-0.20918656	-0.93760083	0.81554678	0.30757363
64	0.252	-1.3384095	0.095093263	-0.064282008	-0.6243995	0.039041093	0.063933374	-1.3586407	0.250984	-0.1021182	-0.77142177	0.053712576	0.098296348	-1.3303159	0.23492349	-0.0093930843	-0.76141926	0.095549544	0.0081358489	-1.4180559	0.29611709	-0.050320808	-0.84067867	0.031052095	0.050679139	-0.9862327	0.42529227	-0.13880064	-0.72636527	0.50613315	0.15427772	-0.97333393	0.41052619	-0.012636282	-0.74842488	0.49377413	0.028394772	-0.96442418	0.83300555	-0.1515522	-0.91758035	0.86425314	0.21931456	-0.87030035	0.92062608	-0.10327031	-0.84841544	0.94814411	0.13539671	-1.027421	0.99047625	0.02681482	-0.84753481	1.3894741	-0.132403	-0.88406657	1.393329	0.19610004	-0.93306893	1.4438672	0.029378157	-0.99072889	1.0484211	-0.21520073	-1.0366262	1.0633326	0.26196209	-0.81225956	0.84690998	-0.20934623	-0.92913791	0.81718344	0.30748808
65	0.256	-1.3237634	0.096952036	-0.065254471	-0.62440756	0.039045306	0.063925593	-1.3448804	0.2526858	-0.10205051	-0.771571	0.053774191	0.098372363	-1.3160512	0.23655818	-0.0096096671	-0.76122085	0.09556059	0.0081624092	-1.4050458	0.29724173	-0.049786267	-0.84077668	0.031065637	0.050658159	-0.97270981	0.42629517	-0.13816094	-0.72479784	0.50609155	0.1547002	-0.96010706	0.41135328	-0.011876384	-0.74596119	0.49362321	0.028774554	-0.95786988	0.83411549	-0.15151756	-0.91169582	0.86618849	0.21957889	-0.86440782	0.92215276	-0.10304806	-0.8423361	0.94984379	0.13550237	-1.0212973	0.99224793	0.027344516	-0.84156246	1.3909611	-0.13258045	-0.87707122	1.3949173	0.19599274	-0.92674981	1.4456096	0.029504303	-0.98489088	1.0499362	-0.2144784	-1.0296052	1.064836	0.26265029	-0.80811626	0.84710048	-0.2095058	-0.92067896	0.8189206	0.3073793
66	0.26	-1.3087956	0.098521062	-0.066104674	-0.62443841	0.039058122	0.063941087	-1.3309809	0.25402072	-0.10197461	-0.77176281	0.053826694	0.098433661	-1.3016411	0.23794006	-0.0098058313	-0.76104447	0.095583726	0.0082017995	-1.3919576	0.29812295	-0.049524974	-0.84088704	0.031081716	0.050620637	-0.95926661	0.42754199	-0.13749352	-0.72318451	0.50597574	0.15504816	-0.94660173	0.41240526	-0.011093387	-0.74374368	0.49346878	0.029359973	-0.95133977	0.83538211	-0.15137764	-0.90580557	0.86816878	0.21984092	-0.85844153	0.92379365	-0.10281597	-0.83625018	0.95159385	0.13563169	-1.0153167	0.99407125	0.027769586	-0.83565439	1.3925278	-0.13277196	-0.8701618	1.3965629	0.19588725	-0.92041298	1.4473524	0.029644405	-0.97909336	1.0515365	-0.21375264	-1.0226207	1.0663966	0.26335015	-0.80402552	0.84738066	-0.20965483	-0.91223441	0.82075781	0.30725794
67	0.264	-1.2934973	0.099824102	-0.066840808	-0.62449419	0.039077145	0.063987884	-1.3169761	0.25500003	-0.10188995	-0.77198124	0.053866993	0.098492411	-1.2874069	0.23903487	-0.0098474814	-0.76090148	0.095624137	0.008262319	-1.3785684	0.29881777	-0.049859718	-0.8410023	0.031098027	0.050564803	-0.94592202	0.42899306	-0.13679749	-0.72126782	0.50581244	0.15537642	-0.93306371	0.41365499	-0.010246525	-0.74176114	0.4933317	0.03013172	-0.9447982	0.83679935	-0.15123575	-0.90007646	0.87015728	0.22008036	-0.85242102	0.92553392	-0.10258014	-0.83009982	0.95336513	0.13579204	-1.0094714	0.99589865	0.02811235	-0.82981676	1.3941601	-0.13296861	-0.86335158	1.3982668	0.19579363	-0.91407079	1.4491091	0.029773038	-0.97334387	1.0532084	-0.21303156	-1.0156787	1.0680113	0.26405553	-0.79998221	0.84775771	-0.20978305	-0.90381397	0.8226887	0.3071366
68	0.268	-1.2778528	0.10088934	-0.067477426	-0.62457515	0.039101519	0.064069713	-1.3028189	0.25565295	-0.10182751	-0.77220136	0.053891405	0.098555662	-1.2735559	0.23983372	-0.0096763463	-0.76080201	0.095684396	0.0083492942	-1.3648452	0.29922164	-0.05064528	-0.8411141	0.031113415	0.050492301	-0.93267197	0.43060527	-0.13607188	-0.71909801	0.50563756	0.15571581	-0.91960114	0.41508682	-0.009361062	-0.7399238	0.49322873	0.030948638	-0.9382327	0.83834959	-0.1511168	-0.89481569	0.87209626	0.2202569	-0.84642466	0.92735077	-0.1023338	-0.82385967	0.95513818	0.13599488	-1.0037125	0.99774096	0.028410615	-0.8240378	1.3958535	-0.13315503	-0.85663623	1.4000284	0.19571196	-0.90774277	1.4508928	0.029864522	-0.96764592	1.0549379	-0.21232119	-1.0087818	1.0696786	0.26474865	-0.7959828	0.84823123	-0.20988266	-0.89542707	0.82470772	0.30702338
69	0.272	-1.2618712	0.10173824	-0.068013493	-0.6246814	0.039132583	0.064186212	-1.2884417	0.25601788	-0.10183336	-0.77240829	0.053905314	0.098618248	-1.2601438	0.24034052	-0.0093069769	-0.76075154	0.09576361	0.0084630949	-1.3510362	0.29918762	-0.051368623	-0.84121743	0.031127075	0.050409178	-0.91948281	0.43234828	-0.13531237	-0.71689269	0.50546441	0.15607402	-0.90623882	0.41669911	-0.0084837184	-0.73815796	0.49316864	0.031680547	-0.93167025	0.84001184	-0.15100915	-0.89041176	0.87392294	0.22031676	-0.84053209	0.92922974	-0.10205297	-0.8175818	0.95690331	0.13625296	-0.9979927	0.99962274	0.028694219	-0.81829997	1.3976047	-0.13332013	-0.85000805	1.4018483	0.19563708	-0.90144086	1.452702	0.029905899	-0.96199451	1.0567208	-0.21162368	-1.0019245	1.0713915	0.26541351	-0.79202767	0.84879647	-0.20994616	-0.88707729	0.82680992	0.30692204
70	0.276	-1.2456053	0.10236769	-0.068408287	-0.62481354	0.039171556	0.064335484	-1.2738676	0.25611971	-0.10190618	-0.77260618	0.053921976	0.098672196	-1.2469413	0.24057006	-0.0088174841	-0.76074943	0.095857308	0.0086025837	-1.3373597	0.29868153	-0.051739456	-0.84131121	0.031139946	0.050324692	-0.90628504	0.43421665	-0.13451492	-0.71485199	0.50531487	0.15646781	-0.89294682	0.41850716	-0.0076451157	-0.73642921	0.49315207	0.032292154	-0.92518324	0.84177293	-0.15090281	-0.88688824	0.87561356	0.22026179	-0.83475959	0.93117567	-0.10171603	-0.81142821	0.95864978	0.13656064	-0.992286	1.0015415	0.028986019	-0.81259356	1.3994025	-0.13346395	-0.84346593	1.4037268	0.1955704	-0.8951701	1.4545226	0.029892946	-0.95638445	1.0585598	-0.21094069	-0.9951	1.0731371	0.26604558	-0.78811971	0.84945028	-0.20996688	-0.87876861	0.82899106	0.30683917
